<mxfile host="app.diagrams.net" modified="2021-09-23T00:36:08.820Z" agent="5.0 (X11)" etag="0Wq_t_FecGswzmEysKUK" version="15.3.0" type="github">
  <diagram id="-t1ZthN6tvDwv3J-I0ru" name="Page-1">
    <mxGraphModel dx="1422" dy="746" grid="1" gridSize="10" guides="1" tooltips="1" connect="1" arrows="1" fold="1" page="1" pageScale="1" pageWidth="827" pageHeight="1169" math="0" shadow="0">
      <root>
        <mxCell id="0" />
        <mxCell id="1" parent="0" />
        <mxCell id="v3KIScBzv4jqq13kNHIA-1" value="Jugador/a" style="shape=umlActor;verticalLabelPosition=bottom;verticalAlign=top;html=1;outlineConnect=0;" vertex="1" parent="1">
          <mxGeometry x="130" y="310" width="30" height="60" as="geometry" />
        </mxCell>
        <mxCell id="v3KIScBzv4jqq13kNHIA-2" value="" style="rounded=0;whiteSpace=wrap;html=1;" vertex="1" parent="1">
          <mxGeometry x="240" y="150" width="610" height="370" as="geometry" />
        </mxCell>
        <mxCell id="v3KIScBzv4jqq13kNHIA-9" value="" style="endArrow=classic;html=1;entryX=0;entryY=0.5;entryDx=0;entryDy=0;" edge="1" parent="1" source="v3KIScBzv4jqq13kNHIA-1" target="v3KIScBzv4jqq13kNHIA-20">
          <mxGeometry width="50" height="50" relative="1" as="geometry">
            <mxPoint x="160" y="380" as="sourcePoint" />
            <mxPoint x="290" y="340" as="targetPoint" />
          </mxGeometry>
        </mxCell>
        <mxCell id="v3KIScBzv4jqq13kNHIA-20" value="click en casilla" style="ellipse;whiteSpace=wrap;html=1;" vertex="1" parent="1">
          <mxGeometry x="294" y="300" width="120" height="80" as="geometry" />
        </mxCell>
        <mxCell id="v3KIScBzv4jqq13kNHIA-21" value="Descubre mina" style="ellipse;whiteSpace=wrap;html=1;" vertex="1" parent="1">
          <mxGeometry x="470" y="200" width="120" height="80" as="geometry" />
        </mxCell>
        <mxCell id="v3KIScBzv4jqq13kNHIA-22" value="" style="endArrow=classic;html=1;dashed=1;exitX=0;exitY=0.5;exitDx=0;exitDy=0;entryX=0.708;entryY=0.038;entryDx=0;entryDy=0;entryPerimeter=0;" edge="1" parent="1" source="v3KIScBzv4jqq13kNHIA-21" target="v3KIScBzv4jqq13kNHIA-20">
          <mxGeometry width="50" height="50" relative="1" as="geometry">
            <mxPoint x="310" y="230" as="sourcePoint" />
            <mxPoint x="360" y="180" as="targetPoint" />
          </mxGeometry>
        </mxCell>
        <mxCell id="v3KIScBzv4jqq13kNHIA-25" value="&amp;lt;&amp;lt;extends&amp;gt;&amp;gt;" style="edgeLabel;html=1;align=center;verticalAlign=middle;resizable=0;points=[];" vertex="1" connectable="0" parent="v3KIScBzv4jqq13kNHIA-22">
          <mxGeometry x="0.3525" y="-1" relative="1" as="geometry">
            <mxPoint as="offset" />
          </mxGeometry>
        </mxCell>
        <mxCell id="v3KIScBzv4jqq13kNHIA-23" value="Casilla segura" style="ellipse;whiteSpace=wrap;html=1;" vertex="1" parent="1">
          <mxGeometry x="480" y="380" width="120" height="80" as="geometry" />
        </mxCell>
        <mxCell id="v3KIScBzv4jqq13kNHIA-24" value="&amp;lt;&amp;lt;extends&amp;gt;&amp;gt;" style="endArrow=classic;html=1;dashed=1;entryX=0.958;entryY=0.713;entryDx=0;entryDy=0;entryPerimeter=0;" edge="1" parent="1" source="v3KIScBzv4jqq13kNHIA-23" target="v3KIScBzv4jqq13kNHIA-20">
          <mxGeometry width="50" height="50" relative="1" as="geometry">
            <mxPoint x="370" y="410" as="sourcePoint" />
            <mxPoint x="420" y="360" as="targetPoint" />
          </mxGeometry>
        </mxCell>
        <mxCell id="v3KIScBzv4jqq13kNHIA-26" value="Termina juego" style="ellipse;whiteSpace=wrap;html=1;" vertex="1" parent="1">
          <mxGeometry x="700" y="200" width="120" height="80" as="geometry" />
        </mxCell>
        <mxCell id="v3KIScBzv4jqq13kNHIA-27" value="&amp;lt;&amp;lt;include&amp;gt;&amp;gt;" style="endArrow=classic;html=1;exitX=1;exitY=0.5;exitDx=0;exitDy=0;dashed=1;" edge="1" parent="1" source="v3KIScBzv4jqq13kNHIA-21" target="v3KIScBzv4jqq13kNHIA-26">
          <mxGeometry width="50" height="50" relative="1" as="geometry">
            <mxPoint x="610" y="240" as="sourcePoint" />
            <mxPoint x="660" y="190" as="targetPoint" />
          </mxGeometry>
        </mxCell>
        <mxCell id="v3KIScBzv4jqq13kNHIA-28" value="Continua juego" style="ellipse;whiteSpace=wrap;html=1;" vertex="1" parent="1">
          <mxGeometry x="700" y="380" width="120" height="80" as="geometry" />
        </mxCell>
        <mxCell id="v3KIScBzv4jqq13kNHIA-29" value="&amp;lt;&amp;lt;include&amp;gt;&amp;gt;" style="endArrow=classic;html=1;exitX=1;exitY=0.5;exitDx=0;exitDy=0;dashed=1;" edge="1" parent="1" source="v3KIScBzv4jqq13kNHIA-23" target="v3KIScBzv4jqq13kNHIA-28">
          <mxGeometry width="50" height="50" relative="1" as="geometry">
            <mxPoint x="590" y="420" as="sourcePoint" />
            <mxPoint x="640" y="370" as="targetPoint" />
          </mxGeometry>
        </mxCell>
      </root>
    </mxGraphModel>
  </diagram>
</mxfile>
